<svg width="120" height="120" viewBox="0 0 120 120" fill="none" xmlns="http://www.w3.org/2000/svg">
<path d="M82.3063 47.2223C82.3063 47.2223 75.4955 68.8266 74.9405 70.61C74.7387 68.7756 69.7441 30 69.7441 30C58.1405 30 51.9351 38.3564 48.6559 47.1713C48.6559 47.1713 40.382 68.8266 39.6757 70.6609C39.6252 68.9794 38.4144 47.4261 38.4144 47.4261C37.7081 36.624 27.9207 30.0509 20 30.0509L29.5856 88.8004C41.7441 88.7494 48.3027 80.444 51.7333 71.629C51.7333 71.629 59.0487 52.5215 59.3514 51.6552C59.4018 52.4705 64.5982 88.8004 64.5982 88.8004C76.8072 88.8004 83.3658 81.0045 86.8973 72.4952L104 30.0509C91.9423 30.0509 85.5856 38.3564 82.3063 47.2223Z" fill="#1A140B"/>
</svg>
