<svg width="120" height="120" viewBox="0 0 120 120" fill="none" xmlns="http://www.w3.org/2000/svg">
<path d="M39.7809 69.2403C39.7809 73.3038 36.4967 76.588 32.4332 76.588C28.3697 76.588 25.0854 73.3038 25.0854 69.2403C25.0854 65.1768 28.3697 61.8926 32.4332 61.8926H39.7809V69.2403Z" fill="#1A140B"/>
<path d="M43.4512 69.2403C43.4512 65.1768 46.7354 61.8926 50.7989 61.8926C54.8624 61.8926 58.1466 65.1768 58.1466 69.2403V87.6096C58.1466 91.6731 54.8624 94.9573 50.7989 94.9573C46.7354 94.9573 43.4512 91.6731 43.4512 87.6096V69.2403Z" fill="#1A140B"/>
<path d="M50.7989 39.7384C46.7354 39.7384 43.4512 36.4542 43.4512 32.3907C43.4512 28.3272 46.7354 25.043 50.7989 25.043C54.8624 25.043 58.1466 28.3272 58.1466 32.3907V39.7384H50.7989Z" fill="#1A140B"/>
<path d="M50.801 43.4678C54.8645 43.4678 58.1487 46.752 58.1487 50.8155C58.1487 54.879 54.8645 58.1632 50.801 58.1632H32.376C28.3125 58.1632 25.0283 54.879 25.0283 50.8155C25.0283 46.752 28.3125 43.4678 32.376 43.4678H50.801Z" fill="#1A140B"/>
<path d="M80.2456 50.8155C80.2456 46.752 83.5298 43.4678 87.5933 43.4678C91.6568 43.4678 94.941 46.752 94.941 50.8155C94.941 54.879 91.6568 58.1632 87.5933 58.1632H80.2456V50.8155Z" fill="#1A140B"/>
<path d="M76.5753 50.8156C76.5753 54.8791 73.2911 58.1633 69.2276 58.1633C65.1641 58.1633 61.8799 54.8791 61.8799 50.8156V32.3907C61.8799 28.3272 65.1641 25.043 69.2276 25.043C73.2911 25.043 76.5753 28.3272 76.5753 32.3907V50.8156Z" fill="#1A140B"/>
<path d="M69.2276 80.2617C73.2911 80.2617 76.5753 83.5459 76.5753 87.6094C76.5753 91.6729 73.2911 94.9571 69.2276 94.9571C65.1641 94.9571 61.8799 91.6729 61.8799 87.6094V80.2617H69.2276Z" fill="#1A140B"/>
<path d="M69.2276 76.588C65.1641 76.588 61.8799 73.3038 61.8799 69.2403C61.8799 65.1768 65.1641 61.8926 69.2276 61.8926H87.6525C91.7161 61.8926 95.0003 65.1768 95.0003 69.2403C95.0003 73.3038 91.7161 76.588 87.6525 76.588H69.2276Z" fill="#1A140B"/>
</svg>
