<svg width="120" height="120" viewBox="0 0 120 120" fill="none" xmlns="http://www.w3.org/2000/svg">
<path d="M46.042 52.8874V52.2907C46.042 50.7782 47.2534 49.5238 48.8146 49.4196L60.1867 48.6603L75.9133 71.819V51.4933L71.8653 50.9537V50.6703C71.8653 49.14 73.1044 47.8774 74.6855 47.7964L85.0329 47.2663V48.7554C85.0329 49.4544 84.5131 50.0523 83.8006 50.1728L81.3106 50.594V83.5108L78.1856 84.5854C75.5748 85.4833 72.6683 84.5222 71.1738 82.2669L55.906 59.2279V81.2174L60.6054 82.1167L60.5399 82.5526C60.3349 83.918 59.156 84.9506 57.73 85.0141L46.042 85.5343C45.8875 84.0661 46.9879 82.7525 48.506 82.593L50.0434 82.4315V53.1122L46.042 52.8874Z" fill="#1A140B"/>
<path fill-rule="evenodd" clip-rule="evenodd" d="M73.7332 21.7148L26.8759 24.914C24.0692 25.1056 21.8936 27.3621 21.8936 30.0814V75.6564C21.8936 78.2115 22.7731 80.694 24.3936 82.7128L34.4968 95.299C36.1302 97.3339 38.7009 98.4544 41.3604 98.2907L93.3667 95.0894C96.0322 94.9253 98.1072 92.7881 98.1072 90.2067V38.3924C98.1072 36.7954 97.3008 35.2989 95.9468 34.3835L79.4836 23.2526C77.8058 22.1183 75.7757 21.5754 73.7332 21.7148ZM29.1995 30.7923C28.5478 30.3098 28.8579 29.3046 29.6766 29.2459L74.0484 26.0633C75.4622 25.9619 76.867 26.3512 78.0103 27.1612L86.9132 33.4688C87.2512 33.7083 87.0926 34.2252 86.6742 34.248L39.6846 36.8035C38.2625 36.8809 36.8589 36.4631 35.7282 35.626L29.1995 30.7923ZM37.4806 44.8151C37.4806 43.2886 38.7139 42.0276 40.2909 41.9417L89.9722 39.2361C91.5091 39.1523 92.803 40.3343 92.803 41.8221V86.6879C92.803 88.2116 91.5741 89.4713 90.0002 89.5609L40.6334 92.3698C38.923 92.4671 37.4806 91.1527 37.4806 89.4968V44.8151Z" fill="#1A140B"/>
</svg>
