<svg width="121" height="120" viewBox="0 0 121 120" fill="none" xmlns="http://www.w3.org/2000/svg">
<path d="M67.3772 67.1938C62.7637 68.9299 57.5937 68.933 52.9799 67.1948C51.2417 62.5862 51.2412 57.4173 52.9773 52.808C57.5898 51.0689 62.7649 51.0686 67.3775 52.8077C69.1151 57.4156 69.1143 62.5858 67.3772 67.1938ZM93.729 54.3335H73.8688L87.9112 40.2991C85.7074 37.2054 82.9866 34.4877 79.891 32.2851L65.8475 46.3195V26.4722C62.0995 25.8421 58.2556 25.8431 54.5075 26.4722V46.3195L40.4641 32.2851C37.3692 34.4862 34.6475 37.2076 32.4436 40.2991L46.4881 54.3335H26.6282C26.138 58.1915 25.9787 61.8172 26.6282 65.6671H46.4884L32.4438 79.7015C34.6531 82.7999 37.3637 85.5087 40.4641 87.7166L54.5075 73.6811V93.5295C58.256 94.1572 62.0988 94.1576 65.8472 93.5295V73.6811L79.892 87.7166C82.989 85.5119 85.705 82.7964 87.9112 79.7015L73.8667 65.6671H93.729C94.3592 61.9248 94.3592 58.0759 93.729 54.3335Z" fill="#1A140B"/>
</svg>
