<svg width="120" height="120" viewBox="0 0 120 120" fill="none" xmlns="http://www.w3.org/2000/svg">
<g clip-path="url(#clip0_767_483)">
<path d="M48.0002 96.0002C54.6242 96.0002 60.0004 90.6241 60.0004 84.0001V72H48.0002C41.3761 72 36 77.3761 36 84.0001C36 90.6241 41.3761 96.0002 48.0002 96.0002Z" fill="#1A140B"/>
<path d="M36 60.0001C36 53.3761 41.3761 48 48.0002 48H60.0004V71.9999H48.0002C41.3761 72.0002 36 66.6241 36 60.0001Z" fill="#1A140B"/>
<path d="M36 36.0001C36 29.3761 41.3761 24 48.0002 24H60.0004V47.9999H48.0002C41.3761 47.9999 36 42.6241 36 36.0001Z" fill="#1A140B"/>
<path d="M60 24H72.0002C78.6242 24 84.0004 29.3761 84.0004 36.0001C84.0004 42.6241 78.6242 47.9999 72.0002 47.9999H60V24Z" fill="#1A140B"/>
<path d="M84.0004 60.0001C84.0004 66.6241 78.6242 72.0002 72.0002 72.0002C65.3761 72.0002 60 66.6241 60 60.0001C60 53.3761 65.3761 48 72.0002 48C78.6242 48 84.0004 53.3761 84.0004 60.0001Z" fill="#1A140B"/>
</g>
<defs>
<clipPath id="clip0_767_483">
<rect width="72" height="72" fill="white" transform="translate(24 24)"/>
</clipPath>
</defs>
</svg>
