<svg width="121" height="120" viewBox="0 0 121 120" fill="none" xmlns="http://www.w3.org/2000/svg">
<path fill-rule="evenodd" clip-rule="evenodd" d="M74.4271 44.3044C71.9365 42.0137 67.5686 39.2726 61.0934 39.2726C51.9763 39.2726 44.238 45.1654 41.4391 53.3108L41.4393 53.316C40.7497 55.4187 40.3283 57.6716 40.3283 59.9998C40.3283 62.3277 40.7497 64.5809 41.4776 66.6836L41.476 66.6848C44.2355 74.8323 51.9747 80.7267 61.0932 80.7267C66.2273 80.7267 70.1356 79.3373 73.0475 77.3472L73.0492 77.3484L73.0494 77.3469C77.6474 74.1929 79.7164 69.4992 80.0994 66.3825H61.095V53.8412H93.4717C93.9696 55.9439 94.1997 57.9716 94.1997 60.7502C94.1997 71.0387 90.4446 79.7126 83.9311 85.6079L83.9283 85.6077L83.9292 85.6083C78.22 90.79 70.4037 93.7941 61.0932 93.7941C47.606 93.7941 35.9581 86.2089 30.2874 75.1694L30.2883 75.1671C27.9519 70.5867 26.6113 65.4435 26.6113 59.9998C26.6113 54.5557 27.9521 49.4117 30.2889 44.831L30.2874 44.8299C35.9581 33.7905 47.6061 26.2056 61.0934 26.2056C70.4039 26.2056 78.1822 29.5475 84.1593 34.9921L74.4271 44.3044Z" fill="#1A140B"/>
</svg>
