<svg width="32" height="32" viewBox="0 0 32 32" fill="none" xmlns="http://www.w3.org/2000/svg">
<path d="M22.2225 9.77758H24.7114C26.086 9.77758 27.2003 10.8919 27.2003 12.2665V19.7331C27.2003 21.1077 26.086 22.222 24.7114 22.222H22.2225V27.1998L17.2447 22.222H12.267C11.5797 22.222 10.9574 21.9434 10.507 21.493M10.507 21.493L14.7558 17.2442H19.7336C21.1082 17.2442 22.2225 16.1299 22.2225 14.7554V7.28869C22.2225 5.91412 21.1082 4.7998 19.7336 4.7998H7.28918C5.91461 4.7998 4.80029 5.91412 4.80029 7.28869V14.7554C4.80029 16.1299 5.91461 17.2442 7.28918 17.2442H9.77807V22.222L10.507 21.493Z" stroke="#1A140B" stroke-width="1.2" stroke-linecap="round" stroke-linejoin="round"/>
</svg>
